<svg xmlns="http://www.w3.org/2000/svg" viewBox="0 0 640 330" width="640" height="330" role="img" aria-labelledby="t d">
  <title id="t">Root hairs compared with mould</title>
  <desc id="d">Left: fine white root hairs radiating evenly from the base of every stem, the same on each. Right: patchy grey mould in dense clusters spanning between stems, with fuzzy filaments, absent in between.</desc>
  <!-- Self-contained light card. The app toggles dark mode with a class on <html>, which an
       img-loaded SVG cannot see, so the figure carries its own ground and ink. -->
  <rect width="640" height="330" rx="10" fill="#f8fafc"/>
  <rect x="0.5" y="0.5" width="639" height="329" rx="10" fill="none" stroke="#cbd5e1"/>
  <line x1="320" y1="16" x2="320" y2="286" stroke="#e2e8f0"/>
  <g font-family="ui-sans-serif,system-ui,-apple-system,Segoe UI,Roboto,Helvetica,Arial,sans-serif">
    <text x="24" y="36" font-size="15" font-weight="600" fill="#15803d">Root hairs - harmless</text>
    <text x="344" y="36" font-size="15" font-weight="600" fill="#b45309">Mould - act now</text>
  </g>
  <g>
    <rect x="40" y="246" width="240" height="28" rx="3" fill="#e7e5e4"/>
    <line x1="70" y1="248" x2="59.3" y2="250.7" stroke="#64748b" stroke-width="0.9" opacity="0.85"/><line x1="70" y1="248" x2="60.0" y2="252.7" stroke="#64748b" stroke-width="0.9" opacity="0.85"/><line x1="70" y1="248" x2="61.1" y2="254.5" stroke="#64748b" stroke-width="0.9" opacity="0.85"/><line x1="70" y1="248" x2="62.5" y2="256.0" stroke="#64748b" stroke-width="0.9" opacity="0.85"/><line x1="70" y1="248" x2="62.0" y2="260.7" stroke="#64748b" stroke-width="0.9" opacity="0.85"/><line x1="70" y1="248" x2="64.5" y2="261.9" stroke="#64748b" stroke-width="0.9" opacity="0.85"/><line x1="70" y1="248" x2="67.2" y2="262.7" stroke="#64748b" stroke-width="0.9" opacity="0.85"/><line x1="70" y1="248" x2="70.0" y2="263.0" stroke="#64748b" stroke-width="0.9" opacity="0.85"/><line x1="70" y1="248" x2="72.8" y2="262.7" stroke="#64748b" stroke-width="0.9" opacity="0.85"/><line x1="70" y1="248" x2="75.5" y2="261.9" stroke="#64748b" stroke-width="0.9" opacity="0.85"/><line x1="70" y1="248" x2="78.0" y2="260.7" stroke="#64748b" stroke-width="0.9" opacity="0.85"/><line x1="70" y1="248" x2="77.5" y2="256.0" stroke="#64748b" stroke-width="0.9" opacity="0.85"/><line x1="70" y1="248" x2="78.9" y2="254.5" stroke="#64748b" stroke-width="0.9" opacity="0.85"/><line x1="70" y1="248" x2="80.0" y2="252.7" stroke="#64748b" stroke-width="0.9" opacity="0.85"/><line x1="70" y1="248" x2="80.7" y2="250.7" stroke="#64748b" stroke-width="0.9" opacity="0.85"/><line x1="110" y1="248" x2="99.3" y2="250.7" stroke="#64748b" stroke-width="0.9" opacity="0.85"/><line x1="110" y1="248" x2="100.0" y2="252.7" stroke="#64748b" stroke-width="0.9" opacity="0.85"/><line x1="110" y1="248" x2="101.1" y2="254.5" stroke="#64748b" stroke-width="0.9" opacity="0.85"/><line x1="110" y1="248" x2="102.5" y2="256.0" stroke="#64748b" stroke-width="0.9" opacity="0.85"/><line x1="110" y1="248" x2="102.0" y2="260.7" stroke="#64748b" stroke-width="0.9" opacity="0.85"/><line x1="110" y1="248" x2="104.5" y2="261.9" stroke="#64748b" stroke-width="0.9" opacity="0.85"/><line x1="110" y1="248" x2="107.2" y2="262.7" stroke="#64748b" stroke-width="0.9" opacity="0.85"/><line x1="110" y1="248" x2="110.0" y2="263.0" stroke="#64748b" stroke-width="0.9" opacity="0.85"/><line x1="110" y1="248" x2="112.8" y2="262.7" stroke="#64748b" stroke-width="0.9" opacity="0.85"/><line x1="110" y1="248" x2="115.5" y2="261.9" stroke="#64748b" stroke-width="0.9" opacity="0.85"/><line x1="110" y1="248" x2="118.0" y2="260.7" stroke="#64748b" stroke-width="0.9" opacity="0.85"/><line x1="110" y1="248" x2="117.5" y2="256.0" stroke="#64748b" stroke-width="0.9" opacity="0.85"/><line x1="110" y1="248" x2="118.9" y2="254.5" stroke="#64748b" stroke-width="0.9" opacity="0.85"/><line x1="110" y1="248" x2="120.0" y2="252.7" stroke="#64748b" stroke-width="0.9" opacity="0.85"/><line x1="110" y1="248" x2="120.7" y2="250.7" stroke="#64748b" stroke-width="0.9" opacity="0.85"/><line x1="150" y1="248" x2="139.3" y2="250.7" stroke="#64748b" stroke-width="0.9" opacity="0.85"/><line x1="150" y1="248" x2="140.0" y2="252.7" stroke="#64748b" stroke-width="0.9" opacity="0.85"/><line x1="150" y1="248" x2="141.1" y2="254.5" stroke="#64748b" stroke-width="0.9" opacity="0.85"/><line x1="150" y1="248" x2="142.5" y2="256.0" stroke="#64748b" stroke-width="0.9" opacity="0.85"/><line x1="150" y1="248" x2="142.0" y2="260.7" stroke="#64748b" stroke-width="0.9" opacity="0.85"/><line x1="150" y1="248" x2="144.5" y2="261.9" stroke="#64748b" stroke-width="0.9" opacity="0.85"/><line x1="150" y1="248" x2="147.2" y2="262.7" stroke="#64748b" stroke-width="0.9" opacity="0.85"/><line x1="150" y1="248" x2="150.0" y2="263.0" stroke="#64748b" stroke-width="0.9" opacity="0.85"/><line x1="150" y1="248" x2="152.8" y2="262.7" stroke="#64748b" stroke-width="0.9" opacity="0.85"/><line x1="150" y1="248" x2="155.5" y2="261.9" stroke="#64748b" stroke-width="0.9" opacity="0.85"/><line x1="150" y1="248" x2="158.0" y2="260.7" stroke="#64748b" stroke-width="0.9" opacity="0.85"/><line x1="150" y1="248" x2="157.5" y2="256.0" stroke="#64748b" stroke-width="0.9" opacity="0.85"/><line x1="150" y1="248" x2="158.9" y2="254.5" stroke="#64748b" stroke-width="0.9" opacity="0.85"/><line x1="150" y1="248" x2="160.0" y2="252.7" stroke="#64748b" stroke-width="0.9" opacity="0.85"/><line x1="150" y1="248" x2="160.7" y2="250.7" stroke="#64748b" stroke-width="0.9" opacity="0.85"/><line x1="190" y1="248" x2="179.3" y2="250.7" stroke="#64748b" stroke-width="0.9" opacity="0.85"/><line x1="190" y1="248" x2="180.0" y2="252.7" stroke="#64748b" stroke-width="0.9" opacity="0.85"/><line x1="190" y1="248" x2="181.1" y2="254.5" stroke="#64748b" stroke-width="0.9" opacity="0.85"/><line x1="190" y1="248" x2="182.5" y2="256.0" stroke="#64748b" stroke-width="0.9" opacity="0.85"/><line x1="190" y1="248" x2="182.0" y2="260.7" stroke="#64748b" stroke-width="0.9" opacity="0.85"/><line x1="190" y1="248" x2="184.5" y2="261.9" stroke="#64748b" stroke-width="0.9" opacity="0.85"/><line x1="190" y1="248" x2="187.2" y2="262.7" stroke="#64748b" stroke-width="0.9" opacity="0.85"/><line x1="190" y1="248" x2="190.0" y2="263.0" stroke="#64748b" stroke-width="0.9" opacity="0.85"/><line x1="190" y1="248" x2="192.8" y2="262.7" stroke="#64748b" stroke-width="0.9" opacity="0.85"/><line x1="190" y1="248" x2="195.5" y2="261.9" stroke="#64748b" stroke-width="0.9" opacity="0.85"/><line x1="190" y1="248" x2="198.0" y2="260.7" stroke="#64748b" stroke-width="0.9" opacity="0.85"/><line x1="190" y1="248" x2="197.5" y2="256.0" stroke="#64748b" stroke-width="0.9" opacity="0.85"/><line x1="190" y1="248" x2="198.9" y2="254.5" stroke="#64748b" stroke-width="0.9" opacity="0.85"/><line x1="190" y1="248" x2="200.0" y2="252.7" stroke="#64748b" stroke-width="0.9" opacity="0.85"/><line x1="190" y1="248" x2="200.7" y2="250.7" stroke="#64748b" stroke-width="0.9" opacity="0.85"/><line x1="230" y1="248" x2="219.3" y2="250.7" stroke="#64748b" stroke-width="0.9" opacity="0.85"/><line x1="230" y1="248" x2="220.0" y2="252.7" stroke="#64748b" stroke-width="0.9" opacity="0.85"/><line x1="230" y1="248" x2="221.1" y2="254.5" stroke="#64748b" stroke-width="0.9" opacity="0.85"/><line x1="230" y1="248" x2="222.5" y2="256.0" stroke="#64748b" stroke-width="0.9" opacity="0.85"/><line x1="230" y1="248" x2="222.0" y2="260.7" stroke="#64748b" stroke-width="0.9" opacity="0.85"/><line x1="230" y1="248" x2="224.5" y2="261.9" stroke="#64748b" stroke-width="0.9" opacity="0.85"/><line x1="230" y1="248" x2="227.2" y2="262.7" stroke="#64748b" stroke-width="0.9" opacity="0.85"/><line x1="230" y1="248" x2="230.0" y2="263.0" stroke="#64748b" stroke-width="0.9" opacity="0.85"/><line x1="230" y1="248" x2="232.8" y2="262.7" stroke="#64748b" stroke-width="0.9" opacity="0.85"/><line x1="230" y1="248" x2="235.5" y2="261.9" stroke="#64748b" stroke-width="0.9" opacity="0.85"/><line x1="230" y1="248" x2="238.0" y2="260.7" stroke="#64748b" stroke-width="0.9" opacity="0.85"/><line x1="230" y1="248" x2="237.5" y2="256.0" stroke="#64748b" stroke-width="0.9" opacity="0.85"/><line x1="230" y1="248" x2="238.9" y2="254.5" stroke="#64748b" stroke-width="0.9" opacity="0.85"/><line x1="230" y1="248" x2="240.0" y2="252.7" stroke="#64748b" stroke-width="0.9" opacity="0.85"/><line x1="230" y1="248" x2="240.7" y2="250.7" stroke="#64748b" stroke-width="0.9" opacity="0.85"/>
    <path d="M70 246 C 66 204.6 66 181.60000000000002 64.4 154" stroke="#65a30d" stroke-width="3" fill="none" stroke-linecap="round"/><ellipse cx="57.400000000000006" cy="151" rx="9" ry="5" fill="#84cc16" transform="rotate(-24 57.400000000000006 151)"/><ellipse cx="71.4" cy="151" rx="9" ry="5" fill="#84cc16" transform="rotate(24 71.4 151)"/><path d="M110 246 C 112 204.6 112 181.60000000000002 112.8 154" stroke="#65a30d" stroke-width="3" fill="none" stroke-linecap="round"/><ellipse cx="105.8" cy="151" rx="9" ry="5" fill="#84cc16" transform="rotate(-24 105.8 151)"/><ellipse cx="119.8" cy="151" rx="9" ry="5" fill="#84cc16" transform="rotate(24 119.8 151)"/><path d="M150 246 C 148 204.6 148 181.60000000000002 147.2 154" stroke="#65a30d" stroke-width="3" fill="none" stroke-linecap="round"/><ellipse cx="140.2" cy="151" rx="9" ry="5" fill="#84cc16" transform="rotate(-24 140.2 151)"/><ellipse cx="154.2" cy="151" rx="9" ry="5" fill="#84cc16" transform="rotate(24 154.2 151)"/><path d="M190 246 C 193 204.6 193 181.60000000000002 194.2 154" stroke="#65a30d" stroke-width="3" fill="none" stroke-linecap="round"/><ellipse cx="187.2" cy="151" rx="9" ry="5" fill="#84cc16" transform="rotate(-24 187.2 151)"/><ellipse cx="201.2" cy="151" rx="9" ry="5" fill="#84cc16" transform="rotate(24 201.2 151)"/><path d="M230 246 C 227 204.6 227 181.60000000000002 225.8 154" stroke="#65a30d" stroke-width="3" fill="none" stroke-linecap="round"/><ellipse cx="218.8" cy="151" rx="9" ry="5" fill="#84cc16" transform="rotate(-24 218.8 151)"/><ellipse cx="232.8" cy="151" rx="9" ry="5" fill="#84cc16" transform="rotate(24 232.8 151)"/>
    <g font-family="ui-sans-serif,system-ui,-apple-system,Segoe UI,Roboto,Helvetica,Arial,sans-serif">
      <text x="24" y="60" font-size="12" fill="#334155">Fine and even, radiating from every stem</text>
      <text x="24" y="78" font-size="12" fill="#334155">The same halo on all of them, not in patches</text>
      <text x="24" y="96" font-size="12" fill="#334155">Vanishes when misted, returns as it dries</text>
      <text x="24" y="114" font-size="12" fill="#334155">No smell</text>
    </g>
  </g>
  <g>
    <rect x="360" y="246" width="240" height="28" rx="3" fill="#e7e5e4"/>
    <ellipse cx="408" cy="246" rx="34" ry="16" fill="#a8a29e" opacity="0.55"/><ellipse cx="474" cy="240" rx="25" ry="12" fill="#a8a29e" opacity="0.55"/><ellipse cx="436" cy="258" rx="20" ry="10" fill="#a8a29e" opacity="0.55"/><ellipse cx="530" cy="250" rx="18" ry="9" fill="#a8a29e" opacity="0.55"/><line x1="431.6" y1="236.5" x2="427.6" y2="231.0" stroke="#78716c" stroke-width="0.8" opacity="0.55"/><line x1="470.6" y1="243.0" x2="481.4" y2="247.1" stroke="#78716c" stroke-width="0.8" opacity="0.55"/><line x1="378.9" y1="245.0" x2="385.2" y2="248.0" stroke="#78716c" stroke-width="0.8" opacity="0.55"/><line x1="450.1" y1="256.8" x2="456.1" y2="262.7" stroke="#78716c" stroke-width="0.8" opacity="0.55"/><line x1="487.4" y1="260.4" x2="478.3" y2="255.6" stroke="#78716c" stroke-width="0.8" opacity="0.55"/><line x1="551.6" y1="233.4" x2="557.4" y2="226.3" stroke="#78716c" stroke-width="0.8" opacity="0.55"/><line x1="398.5" y1="235.5" x2="393.2" y2="249.5" stroke="#78716c" stroke-width="0.8" opacity="0.55"/><line x1="405.3" y1="249.4" x2="398.8" y2="241.7" stroke="#78716c" stroke-width="0.8" opacity="0.55"/><line x1="472.8" y1="233.9" x2="480.5" y2="236.9" stroke="#78716c" stroke-width="0.8" opacity="0.55"/><line x1="497.2" y1="244.8" x2="492.3" y2="256.3" stroke="#78716c" stroke-width="0.8" opacity="0.55"/><line x1="455.4" y1="241.0" x2="459.2" y2="227.8" stroke="#78716c" stroke-width="0.8" opacity="0.55"/><line x1="416.9" y1="249.2" x2="401.5" y2="246.8" stroke="#78716c" stroke-width="0.8" opacity="0.55"/><line x1="506.2" y1="240.6" x2="513.5" y2="239.7" stroke="#78716c" stroke-width="0.8" opacity="0.55"/><line x1="448.9" y1="254.7" x2="455.5" y2="264.0" stroke="#78716c" stroke-width="0.8" opacity="0.55"/><line x1="379.2" y1="252.0" x2="380.3" y2="239.8" stroke="#78716c" stroke-width="0.8" opacity="0.55"/><line x1="533.1" y1="241.4" x2="528.9" y2="229.6" stroke="#78716c" stroke-width="0.8" opacity="0.55"/><line x1="478.7" y1="245.7" x2="487.5" y2="231.8" stroke="#78716c" stroke-width="0.8" opacity="0.55"/><line x1="459.2" y1="251.9" x2="472.0" y2="257.0" stroke="#78716c" stroke-width="0.8" opacity="0.55"/><line x1="491.1" y1="261.8" x2="495.1" y2="253.6" stroke="#78716c" stroke-width="0.8" opacity="0.55"/><line x1="443.0" y1="252.1" x2="454.0" y2="253.6" stroke="#78716c" stroke-width="0.8" opacity="0.55"/><line x1="402.9" y1="235.5" x2="416.4" y2="240.7" stroke="#78716c" stroke-width="0.8" opacity="0.55"/><line x1="395.8" y1="239.4" x2="383.7" y2="249.3" stroke="#78716c" stroke-width="0.8" opacity="0.55"/><line x1="386.8" y1="245.5" x2="371.9" y2="240.7" stroke="#78716c" stroke-width="0.8" opacity="0.55"/><line x1="522.7" y1="257.9" x2="520.9" y2="268.3" stroke="#78716c" stroke-width="0.8" opacity="0.55"/><line x1="438.0" y1="258.5" x2="445.4" y2="256.5" stroke="#78716c" stroke-width="0.8" opacity="0.55"/><line x1="404.4" y1="239.0" x2="405.6" y2="250.2" stroke="#78716c" stroke-width="0.8" opacity="0.55"/><line x1="480.4" y1="239.9" x2="491.0" y2="240.2" stroke="#78716c" stroke-width="0.8" opacity="0.55"/><line x1="439.9" y1="249.0" x2="453.0" y2="245.0" stroke="#78716c" stroke-width="0.8" opacity="0.55"/><line x1="466.9" y1="250.5" x2="463.9" y2="244.6" stroke="#78716c" stroke-width="0.8" opacity="0.55"/><line x1="537.5" y1="255.4" x2="547.9" y2="244.9" stroke="#78716c" stroke-width="0.8" opacity="0.55"/><line x1="444.2" y1="244.0" x2="454.5" y2="251.8" stroke="#78716c" stroke-width="0.8" opacity="0.55"/><line x1="383.5" y1="234.0" x2="385.4" y2="241.5" stroke="#78716c" stroke-width="0.8" opacity="0.55"/><line x1="434.6" y1="233.6" x2="442.2" y2="233.6" stroke="#78716c" stroke-width="0.8" opacity="0.55"/><line x1="390.7" y1="242.9" x2="406.1" y2="245.4" stroke="#78716c" stroke-width="0.8" opacity="0.55"/><line x1="485.0" y1="236.5" x2="484.8" y2="246.3" stroke="#78716c" stroke-width="0.8" opacity="0.55"/><line x1="439.0" y1="235.7" x2="448.9" y2="221.9" stroke="#78716c" stroke-width="0.8" opacity="0.55"/><line x1="457.7" y1="246.5" x2="463.9" y2="250.2" stroke="#78716c" stroke-width="0.8" opacity="0.55"/><line x1="435.0" y1="239.9" x2="438.7" y2="233.1" stroke="#78716c" stroke-width="0.8" opacity="0.55"/><line x1="376.2" y1="260.5" x2="368.8" y2="259.2" stroke="#78716c" stroke-width="0.8" opacity="0.55"/><line x1="471.9" y1="232.8" x2="455.4" y2="229.9" stroke="#78716c" stroke-width="0.8" opacity="0.55"/><line x1="530.9" y1="252.9" x2="530.2" y2="262.9" stroke="#78716c" stroke-width="0.8" opacity="0.55"/><line x1="402.7" y1="255.2" x2="388.5" y2="252.2" stroke="#78716c" stroke-width="0.8" opacity="0.55"/><line x1="432.7" y1="238.7" x2="439.0" y2="223.1" stroke="#78716c" stroke-width="0.8" opacity="0.55"/><line x1="528.9" y1="256.2" x2="534.8" y2="243.3" stroke="#78716c" stroke-width="0.8" opacity="0.55"/><line x1="413.7" y1="247.5" x2="409.8" y2="252.5" stroke="#78716c" stroke-width="0.8" opacity="0.55"/><line x1="377.1" y1="240.4" x2="376.4" y2="254.0" stroke="#78716c" stroke-width="0.8" opacity="0.55"/><line x1="548.0" y1="245.4" x2="563.6" y2="238.9" stroke="#78716c" stroke-width="0.8" opacity="0.55"/><line x1="547.7" y1="242.9" x2="549.3" y2="251.3" stroke="#78716c" stroke-width="0.8" opacity="0.55"/><line x1="408.2" y1="238.1" x2="396.9" y2="227.0" stroke="#78716c" stroke-width="0.8" opacity="0.55"/><line x1="526.6" y1="246.4" x2="518.2" y2="234.3" stroke="#78716c" stroke-width="0.8" opacity="0.55"/><line x1="387.6" y1="251.8" x2="399.9" y2="244.0" stroke="#78716c" stroke-width="0.8" opacity="0.55"/><line x1="510.0" y1="246.3" x2="516.4" y2="259.6" stroke="#78716c" stroke-width="0.8" opacity="0.55"/><line x1="433.2" y1="256.0" x2="443.4" y2="254.2" stroke="#78716c" stroke-width="0.8" opacity="0.55"/><line x1="445.9" y1="260.4" x2="444.6" y2="252.6" stroke="#78716c" stroke-width="0.8" opacity="0.55"/><line x1="395.4" y1="236.5" x2="407.7" y2="228.2" stroke="#78716c" stroke-width="0.8" opacity="0.55"/><line x1="398.9" y1="256.8" x2="412.0" y2="255.2" stroke="#78716c" stroke-width="0.8" opacity="0.55"/><line x1="436.5" y1="248.5" x2="440.7" y2="253.0" stroke="#78716c" stroke-width="0.8" opacity="0.55"/><line x1="550.6" y1="251.5" x2="534.6" y2="248.8" stroke="#78716c" stroke-width="0.8" opacity="0.55"/><line x1="451.8" y1="258.2" x2="455.7" y2="250.8" stroke="#78716c" stroke-width="0.8" opacity="0.55"/><line x1="418.3" y1="240.8" x2="419.1" y2="253.2" stroke="#78716c" stroke-width="0.8" opacity="0.55"/><line x1="419.7" y1="244.6" x2="430.6" y2="256.3" stroke="#78716c" stroke-width="0.8" opacity="0.55"/><line x1="437.1" y1="245.7" x2="423.3" y2="237.8" stroke="#78716c" stroke-width="0.8" opacity="0.55"/><line x1="449.4" y1="259.5" x2="437.5" y2="259.4" stroke="#78716c" stroke-width="0.8" opacity="0.55"/><line x1="468.3" y1="232.6" x2="460.9" y2="235.5" stroke="#78716c" stroke-width="0.8" opacity="0.55"/><line x1="372.7" y1="256.0" x2="378.0" y2="265.9" stroke="#78716c" stroke-width="0.8" opacity="0.55"/><line x1="505.4" y1="248.7" x2="500.1" y2="259.1" stroke="#78716c" stroke-width="0.8" opacity="0.55"/><line x1="474.2" y1="255.5" x2="483.8" y2="263.0" stroke="#78716c" stroke-width="0.8" opacity="0.55"/><line x1="417.7" y1="240.3" x2="419.3" y2="228.8" stroke="#78716c" stroke-width="0.8" opacity="0.55"/><line x1="475.4" y1="254.8" x2="484.6" y2="249.1" stroke="#78716c" stroke-width="0.8" opacity="0.55"/><line x1="484.7" y1="247.2" x2="471.1" y2="246.1" stroke="#78716c" stroke-width="0.8" opacity="0.55"/><line x1="455.2" y1="248.0" x2="439.0" y2="250.2" stroke="#78716c" stroke-width="0.8" opacity="0.55"/><line x1="500.7" y1="258.3" x2="508.9" y2="255.1" stroke="#78716c" stroke-width="0.8" opacity="0.55"/><line x1="475.0" y1="260.3" x2="479.0" y2="254.0" stroke="#78716c" stroke-width="0.8" opacity="0.55"/><line x1="394.4" y1="245.3" x2="402.1" y2="249.1" stroke="#78716c" stroke-width="0.8" opacity="0.55"/><line x1="385.5" y1="252.1" x2="388.8" y2="236.6" stroke="#78716c" stroke-width="0.8" opacity="0.55"/><line x1="400.4" y1="253.5" x2="396.4" y2="247.1" stroke="#78716c" stroke-width="0.8" opacity="0.55"/><line x1="534.4" y1="261.0" x2="537.6" y2="277.2" stroke="#78716c" stroke-width="0.8" opacity="0.55"/><line x1="445.3" y1="246.6" x2="460.4" y2="245.7" stroke="#78716c" stroke-width="0.8" opacity="0.55"/><line x1="401.7" y1="244.9" x2="392.0" y2="244.0" stroke="#78716c" stroke-width="0.8" opacity="0.55"/><line x1="408.0" y1="241.6" x2="406.9" y2="235.4" stroke="#78716c" stroke-width="0.8" opacity="0.55"/><line x1="473.9" y1="245.2" x2="483.5" y2="246.3" stroke="#78716c" stroke-width="0.8" opacity="0.55"/><line x1="486.8" y1="247.4" x2="502.3" y2="254.0" stroke="#78716c" stroke-width="0.8" opacity="0.55"/><line x1="517.1" y1="261.2" x2="524.1" y2="266.6" stroke="#78716c" stroke-width="0.8" opacity="0.55"/><line x1="379.3" y1="255.4" x2="378.3" y2="262.7" stroke="#78716c" stroke-width="0.8" opacity="0.55"/><line x1="449.7" y1="259.3" x2="453.4" y2="251.3" stroke="#78716c" stroke-width="0.8" opacity="0.55"/><line x1="399.5" y1="259.6" x2="387.1" y2="253.7" stroke="#78716c" stroke-width="0.8" opacity="0.55"/><line x1="388.5" y1="233.7" x2="384.4" y2="223.8" stroke="#78716c" stroke-width="0.8" opacity="0.55"/><line x1="385.3" y1="260.2" x2="375.5" y2="249.1" stroke="#78716c" stroke-width="0.8" opacity="0.55"/><line x1="387.4" y1="257.7" x2="401.6" y2="264.0" stroke="#78716c" stroke-width="0.8" opacity="0.55"/><line x1="455.5" y1="242.2" x2="440.2" y2="236.9" stroke="#78716c" stroke-width="0.8" opacity="0.55"/>
    <path d="M390 246 C 387 204.6 387 181.60000000000002 385.8 154" stroke="#65a30d" stroke-width="3" fill="none" stroke-linecap="round"/><ellipse cx="378.8" cy="151" rx="9" ry="5" fill="#84cc16" transform="rotate(-24 378.8 151)"/><ellipse cx="392.8" cy="151" rx="9" ry="5" fill="#84cc16" transform="rotate(24 392.8 151)"/><path d="M430 246 C 432 204.6 432 181.60000000000002 432.8 154" stroke="#65a30d" stroke-width="3" fill="none" stroke-linecap="round"/><ellipse cx="425.8" cy="151" rx="9" ry="5" fill="#84cc16" transform="rotate(-24 425.8 151)"/><ellipse cx="439.8" cy="151" rx="9" ry="5" fill="#84cc16" transform="rotate(24 439.8 151)"/><path d="M470 246 C 468 204.6 468 181.60000000000002 467.2 154" stroke="#65a30d" stroke-width="3" fill="none" stroke-linecap="round"/><ellipse cx="460.2" cy="151" rx="9" ry="5" fill="#84cc16" transform="rotate(-24 460.2 151)"/><ellipse cx="474.2" cy="151" rx="9" ry="5" fill="#84cc16" transform="rotate(24 474.2 151)"/><path d="M510 246 C 513 204.6 513 181.60000000000002 514.2 154" stroke="#65a30d" stroke-width="3" fill="none" stroke-linecap="round"/><ellipse cx="507.20000000000005" cy="151" rx="9" ry="5" fill="#84cc16" transform="rotate(-24 507.20000000000005 151)"/><ellipse cx="521.2" cy="151" rx="9" ry="5" fill="#84cc16" transform="rotate(24 521.2 151)"/>
    <g font-family="ui-sans-serif,system-ui,-apple-system,Segoe UI,Roboto,Helvetica,Arial,sans-serif">
      <text x="344" y="60" font-size="12" fill="#334155">Patchy - dense in spots, absent elsewhere</text>
      <text x="344" y="78" font-size="12" fill="#334155">Cobwebby, spanning between stems</text>
      <text x="344" y="96" font-size="12" fill="#334155">Does not wash away when misted</text>
      <text x="344" y="114" font-size="12" fill="#334155">Musty smell</text>
    </g>
  </g>
  <g font-family="ui-sans-serif,system-ui,-apple-system,Segoe UI,Roboto,Helvetica,Arial,sans-serif"><text x="24" y="311" font-size="12.5" fill="#475569">The mist test settles it: root hairs disappear when wetted, mould does not.</text></g>
</svg>
